<svg xmlns="http://www.w3.org/2000/svg" xmlns:xlink="http://www.w3.org/1999/xlink" width="100" zoomAndPan="magnify" viewBox="0 0 75 74.999997" height="100" preserveAspectRatio="xMidYMid meet" version="1.0"><defs><clipPath id="262754131e"><path d="M 10 39 L 65 39 L 65 73.691406 L 10 73.691406 Z M 10 39 " clip-rule="nonzero"/></clipPath><clipPath id="575c5a09c4"><path d="M 28 0.941406 L 54 0.941406 L 54 44 L 28 44 Z M 28 0.941406 " clip-rule="nonzero"/></clipPath></defs><g clip-path="url(#262754131e)"><path fill="#4e7896" d="M 28.140625 56.664062 C 28.140625 56.664062 25.371094 58.351562 30.066406 58.832031 C 35.722656 59.550781 38.734375 59.433594 44.988281 58.230469 C 46.25 59.003906 47.574219 59.644531 48.960938 60.15625 C 34.882812 66.175781 17.066406 59.796875 28.140625 56.664062 Z M 26.339844 48.84375 C 26.339844 48.84375 23.332031 51.128906 28.023438 51.613281 C 34.164062 52.214844 38.976562 52.332031 47.28125 50.652344 C 48.101562 51.480469 49.066406 52.082031 50.171875 52.457031 C 33.203125 57.507812 14.1875 52.9375 26.339844 48.84375 Z M 59.554688 62.558594 C 59.554688 62.558594 61.601562 64.246094 57.269531 65.570312 C 49.207031 67.980469 23.453125 68.699219 16.230469 65.570312 C 13.703125 64.488281 18.519531 62.921875 20.0625 62.679688 C 21.625 62.320312 22.472656 62.320312 22.472656 62.320312 C 19.699219 60.394531 4.058594 66.292969 14.527344 67.972656 C 43.292969 72.667969 67 65.929688 59.539062 62.558594 Z M 29.445312 40.65625 C 29.445312 40.65625 16.328125 43.789062 24.75 44.871094 C 28.359375 45.351562 35.460938 45.230469 42.078125 44.75 C 47.496094 44.269531 52.914062 43.308594 52.914062 43.308594 C 52.914062 43.308594 50.988281 44.152344 49.664062 44.992188 C 36.308594 48.484375 10.671875 46.917969 18.011719 43.308594 C 24.269531 40.300781 29.445312 40.664062 29.445312 40.664062 Z M 52.914062 53.773438 C 66.390625 46.792969 60.136719 40.058594 55.800781 40.898438 C 54.71875 41.140625 54.234375 41.378906 54.234375 41.378906 C 54.234375 41.378906 54.597656 40.660156 55.4375 40.417969 C 63.984375 37.410156 70.722656 49.445312 52.667969 54.136719 C 52.667969 54.136719 52.789062 54.015625 52.910156 53.773438 Z M 30.773438 72.789062 C 43.769531 73.632812 63.628906 72.308594 64.109375 66.167969 C 64.109375 66.167969 63.144531 68.578125 53.398438 70.378906 C 42.324219 72.425781 28.605469 72.179688 20.542969 70.863281 C 20.542969 70.863281 22.226562 72.304688 30.773438 72.789062 Z M 30.773438 72.789062 " fill-opacity="1" fill-rule="nonzero"/></g><g clip-path="url(#575c5a09c4)"><path fill="#f58219" d="M 44.75 0.945312 C 44.75 0.945312 52.214844 8.527344 37.652344 19.960938 C 25.976562 29.226562 35.003906 34.519531 37.652344 40.539062 C 30.792969 34.402344 25.859375 28.984375 29.226562 23.933594 C 34.160156 16.46875 47.761719 12.878906 44.75 0.945312 Z M 40.921875 35.484375 C 44.414062 39.457031 39.960938 43.066406 39.960938 43.066406 C 39.960938 43.066406 48.867188 38.492188 44.773438 32.835938 C 41.042969 27.421875 38.152344 24.773438 53.800781 15.746094 C 53.800781 15.746094 29.128906 21.882812 40.921875 35.484375 Z M 40.921875 35.484375 " fill-opacity="1" fill-rule="nonzero"/></g></svg>